<svg width="60" height="15" viewBox="0 0 60 15" fill="none" xmlns="http://www.w3.org/2000/svg">
<path d="M16.644 12.204C16.324 12.204 16.044 12.136 15.804 12C15.572 11.872 15.456 11.644 15.456 11.316C15.456 11.108 15.508 10.876 15.612 10.62C15.756 10.78 15.888 10.892 16.008 10.956C16.136 11.02 16.272 11.052 16.416 11.052C16.816 11.052 17.112 10.828 17.304 10.38C17.504 9.932 17.604 9.436 17.604 8.892C17.604 7.876 17.224 7.368 16.464 7.368C16.248 7.368 16.064 7.38 15.912 7.404L14.928 12H13.2L14.832 4.368L16.608 4.128L16.044 6.792H16.116C16.42 6.792 16.704 6.696 16.968 6.504C17.232 6.304 17.444 6.056 17.604 5.76C17.764 5.456 17.844 5.152 17.844 4.848C17.844 4.48 17.712 4.172 17.448 3.924C17.192 3.676 16.796 3.552 16.26 3.552C15.772 3.552 15.296 3.664 14.832 3.888C14.368 4.104 13.988 4.432 13.692 4.872C13.404 5.312 13.26 5.844 13.26 6.468C13.26 6.764 13.288 6.972 13.344 7.092C13.4 7.204 13.428 7.268 13.428 7.284C13.004 7.284 12.684 7.2 12.468 7.032C12.252 6.856 12.144 6.572 12.144 6.18C12.144 5.636 12.348 5.12 12.756 4.632C13.164 4.144 13.704 3.752 14.376 3.456C15.048 3.152 15.756 3 16.5 3C17.06 3 17.532 3.088 17.916 3.264C18.3 3.44 18.584 3.672 18.768 3.96C18.96 4.248 19.056 4.564 19.056 4.908C19.056 5.276 18.952 5.632 18.744 5.976C18.536 6.32 18.24 6.6 17.856 6.816C18.336 6.904 18.692 7.128 18.924 7.488C19.156 7.84 19.272 8.26 19.272 8.748C19.272 9.204 19.184 9.7 19.008 10.236C18.84 10.772 18.556 11.236 18.156 11.628C17.764 12.012 17.26 12.204 16.644 12.204ZM21.4395 12.048C20.8475 12.048 20.3795 11.896 20.0355 11.592C19.6915 11.288 19.5195 10.808 19.5195 10.152C19.5195 9.608 19.6315 9.004 19.8555 8.34C20.0795 7.676 20.4395 7.104 20.9355 6.624C21.4315 6.136 22.0555 5.892 22.8075 5.892C23.8315 5.892 24.3435 6.532 24.3435 7.812V7.824C24.3675 7.832 24.4115 7.836 24.4755 7.836C24.7395 7.836 25.0435 7.768 25.3875 7.632C25.7315 7.488 26.0435 7.316 26.3235 7.116L26.4315 7.44C26.1995 7.688 25.8955 7.9 25.5195 8.076C25.1515 8.244 24.7475 8.364 24.3075 8.436C24.2435 9.164 24.0795 9.8 23.8155 10.344C23.5515 10.888 23.2115 11.308 22.7955 11.604C22.3795 11.9 21.9275 12.048 21.4395 12.048ZM21.9195 10.968C22.1115 10.968 22.3035 10.86 22.4955 10.644C22.6875 10.42 22.8555 10.12 22.9995 9.744C23.1435 9.36 23.2475 8.936 23.3115 8.472C23.0955 8.424 22.9875 8.256 22.9875 7.968C22.9875 7.64 23.1115 7.424 23.3595 7.32C23.3435 7.056 23.3035 6.876 23.2395 6.78C23.1755 6.676 23.0635 6.624 22.9035 6.624C22.6395 6.624 22.3835 6.816 22.1355 7.2C21.8875 7.584 21.6875 8.044 21.5355 8.58C21.3835 9.116 21.3075 9.588 21.3075 9.996C21.3075 10.38 21.3515 10.64 21.4395 10.776C21.5275 10.904 21.6875 10.968 21.9195 10.968ZM26.7129 12.048C26.1209 12.048 25.6529 11.896 25.3089 11.592C24.9649 11.288 24.7929 10.808 24.7929 10.152C24.7929 9.608 24.9049 9.004 25.1289 8.34C25.3529 7.676 25.7129 7.104 26.2089 6.624C26.7049 6.136 27.3289 5.892 28.0809 5.892C29.1049 5.892 29.6169 6.532 29.6169 7.812V7.824C29.6409 7.832 29.6849 7.836 29.7489 7.836C30.0129 7.836 30.3169 7.768 30.6609 7.632C31.0049 7.488 31.3169 7.316 31.5969 7.116L31.7049 7.44C31.4729 7.688 31.1689 7.9 30.7929 8.076C30.4249 8.244 30.0209 8.364 29.5809 8.436C29.5169 9.164 29.3529 9.8 29.0889 10.344C28.8249 10.888 28.4849 11.308 28.0689 11.604C27.6529 11.9 27.2009 12.048 26.7129 12.048ZM27.1929 10.968C27.3849 10.968 27.5769 10.86 27.7689 10.644C27.9609 10.42 28.1289 10.12 28.2729 9.744C28.4169 9.36 28.5209 8.936 28.5849 8.472C28.3689 8.424 28.2609 8.256 28.2609 7.968C28.2609 7.64 28.3849 7.424 28.6329 7.32C28.6169 7.056 28.5769 6.876 28.5129 6.78C28.4489 6.676 28.3369 6.624 28.1769 6.624C27.9129 6.624 27.6569 6.816 27.4089 7.2C27.1609 7.584 26.9609 8.044 26.8089 8.58C26.6569 9.116 26.5809 9.588 26.5809 9.996C26.5809 10.38 26.6249 10.64 26.7129 10.776C26.8009 10.904 26.9609 10.968 27.1929 10.968ZM34.7464 12.072C34.2504 12.072 33.8744 11.956 33.6184 11.724C33.3624 11.484 33.2344 11.144 33.2344 10.704C33.2344 10.512 33.2584 10.304 33.3064 10.08L33.4024 9.612C33.4344 9.476 33.4504 9.328 33.4504 9.168C33.4504 8.784 33.3064 8.592 33.0184 8.592C32.8904 8.592 32.7544 8.628 32.6104 8.7C32.4744 8.772 32.3144 8.884 32.1304 9.036L31.5064 12H29.7784L31.5184 3.84L33.2944 3.6L32.3944 7.824L34.7104 6H35.8984L33.4984 7.668C33.6184 7.636 33.7504 7.62 33.8944 7.62C34.3264 7.62 34.6544 7.752 34.8784 8.016C35.1024 8.28 35.2144 8.616 35.2144 9.024C35.2144 9.192 35.1984 9.344 35.1664 9.48L35.0344 10.08C34.9944 10.224 34.9744 10.352 34.9744 10.464C34.9744 10.76 35.1304 10.908 35.4424 10.908C35.6824 10.908 35.8744 10.824 36.0184 10.656C36.1624 10.48 36.3064 10.212 36.4504 9.852H36.9544C36.4584 11.332 35.7224 12.072 34.7464 12.072ZM37.8133 12.072C37.4293 12.072 37.1053 12 36.8413 11.856C36.5773 11.704 36.3813 11.512 36.2533 11.28C36.1253 11.04 36.0613 10.792 36.0613 10.536C36.0613 10.272 36.1253 10.044 36.2533 9.852C36.3733 9.652 36.5213 9.508 36.6973 9.42C37.0093 8.86 37.2813 8.296 37.5133 7.728C37.7453 7.152 37.9653 6.532 38.1733 5.868L39.9493 5.628C39.9893 6.652 40.0573 7.76 40.1533 8.952C40.1933 9.432 40.2133 9.78 40.2133 9.996C40.2133 10.18 40.1973 10.332 40.1653 10.452C40.5413 10.236 40.8293 10.036 41.0293 9.852H41.5333C41.0213 10.444 40.4093 10.944 39.6973 11.352C39.4653 11.6 39.1773 11.784 38.8333 11.904C38.4973 12.016 38.1573 12.072 37.8133 12.072ZM37.4293 11.124C37.7253 11.124 37.9733 11.036 38.1733 10.86C38.3733 10.684 38.4733 10.4 38.4733 10.008C38.4733 9.768 38.4493 9.432 38.4013 9C38.3213 8.088 38.2693 7.476 38.2453 7.164C38.0533 7.796 37.7293 8.552 37.2733 9.432C37.4573 9.528 37.5493 9.668 37.5493 9.852C37.5493 10.004 37.4973 10.14 37.3933 10.26C37.2973 10.38 37.1733 10.44 37.0213 10.44C36.8533 10.44 36.7453 10.388 36.6973 10.284C36.6973 10.572 36.7533 10.784 36.8653 10.92C36.9853 11.056 37.1733 11.124 37.4293 11.124ZM45.3593 12.072C44.8713 12.072 44.5113 11.944 44.2793 11.688C44.0553 11.424 43.9433 11.1 43.9433 10.716C43.9433 10.548 43.9633 10.36 44.0033 10.152C44.0433 9.936 44.0833 9.728 44.1233 9.528C44.1713 9.328 44.2033 9.2 44.2193 9.144C44.2833 8.864 44.3433 8.588 44.3993 8.316C44.4553 8.044 44.4833 7.824 44.4833 7.656C44.4833 7.248 44.3393 7.044 44.0513 7.044C43.8433 7.044 43.6593 7.148 43.4993 7.356C43.3393 7.556 43.2113 7.82 43.1153 8.148L42.2993 12H40.5713L42.3113 3.84L44.0873 3.6L43.4393 6.624C43.8393 6.176 44.3073 5.952 44.8433 5.952C45.2513 5.952 45.5753 6.064 45.8153 6.288C46.0553 6.512 46.1753 6.852 46.1753 7.308C46.1753 7.54 46.1473 7.8 46.0913 8.088C46.0353 8.368 45.9553 8.712 45.8513 9.12C45.7873 9.368 45.7273 9.612 45.6713 9.852C45.6233 10.084 45.5993 10.268 45.5993 10.404C45.5993 10.564 45.6353 10.688 45.7073 10.776C45.7793 10.864 45.9033 10.908 46.0793 10.908C46.3193 10.908 46.5113 10.824 46.6553 10.656C46.7993 10.48 46.9433 10.212 47.0873 9.852H47.5913C47.2953 10.732 46.9513 11.324 46.5593 11.628C46.1753 11.924 45.7753 12.072 45.3593 12.072ZM48.8019 12.072C48.2099 12.072 47.7499 11.92 47.4219 11.616C47.0939 11.304 46.9299 10.82 46.9299 10.164C46.9299 9.612 47.0379 9.004 47.2539 8.34C47.4699 7.676 47.8219 7.104 48.3099 6.624C48.7979 6.136 49.4179 5.892 50.1699 5.892C51.0499 5.892 51.4899 6.276 51.4899 7.044C51.4899 7.492 51.3619 7.904 51.1059 8.28C50.8499 8.656 50.5099 8.96 50.0859 9.192C49.6619 9.416 49.2099 9.544 48.7299 9.576C48.7139 9.816 48.7059 9.976 48.7059 10.056C48.7059 10.448 48.7739 10.716 48.9099 10.86C49.0459 10.996 49.2659 11.064 49.5699 11.064C50.0019 11.064 50.3699 10.964 50.6739 10.764C50.9859 10.564 51.3259 10.26 51.6939 9.852H52.1019C51.2139 11.332 50.1139 12.072 48.8019 12.072ZM48.8259 9C49.1219 8.984 49.4019 8.88 49.6659 8.688C49.9379 8.496 50.1539 8.252 50.3139 7.956C50.4819 7.66 50.5659 7.348 50.5659 7.02C50.5659 6.692 50.4659 6.528 50.2659 6.528C49.9779 6.528 49.6939 6.78 49.4139 7.284C49.1419 7.788 48.9459 8.36 48.8259 9ZM52.8794 12.072C52.4954 12.072 52.1834 11.952 51.9434 11.712C51.7114 11.472 51.5954 11.112 51.5954 10.632C51.5954 10.432 51.6274 10.172 51.6914 9.852L52.9754 3.84L54.7514 3.6L53.3714 10.08C53.3394 10.2 53.3234 10.328 53.3234 10.464C53.3234 10.624 53.3594 10.74 53.4314 10.812C53.5114 10.876 53.6394 10.908 53.8154 10.908C54.0474 10.908 54.2634 10.812 54.4634 10.62C54.6634 10.42 54.8074 10.164 54.8954 9.852H55.3994C55.1034 10.716 54.7234 11.304 54.2594 11.616C53.7954 11.92 53.3354 12.072 52.8794 12.072ZM53.8106 15C53.4346 15 53.1066 14.876 52.8266 14.628C52.5386 14.388 52.3946 14.08 52.3946 13.704C52.3946 13.36 52.4826 13.076 52.6586 12.852C52.8346 12.628 53.0626 12.448 53.3426 12.312C53.6226 12.184 53.9946 12.048 54.4586 11.904L55.9106 5.052C56.0706 4.284 56.3506 3.752 56.7506 3.456C57.1586 3.16 57.6066 3.012 58.0946 3.012C58.4706 3.012 58.7986 3.136 59.0786 3.384C59.3666 3.624 59.5106 3.932 59.5106 4.308C59.5106 4.492 59.4986 4.656 59.4746 4.8H58.9106C58.9266 4.624 58.9346 4.516 58.9346 4.476C58.9346 4.348 58.8906 4.248 58.8026 4.176C58.7146 4.104 58.6066 4.068 58.4786 4.068C58.3106 4.068 58.1466 4.144 57.9866 4.296C57.8266 4.44 57.7106 4.692 57.6386 5.052L57.4346 6H58.3106L58.2266 6.48H57.3386L55.9586 12.96C55.7986 13.736 55.5226 14.268 55.1306 14.556C54.7386 14.852 54.2986 15 53.8106 15ZM53.5346 13.932C53.8546 13.932 54.0826 13.62 54.2186 12.996L54.3746 12.3C53.9506 12.444 53.6266 12.608 53.4026 12.792C53.1706 12.984 53.0546 13.232 53.0546 13.536C53.0546 13.632 53.1026 13.72 53.1986 13.8C53.2946 13.888 53.4066 13.932 53.5346 13.932Z" fill="#9D9D9D"/>
<path d="M1.13151 10.0982L1.15926 5.76399H0.604248V11.2788C1.36694 11.1052 2.13232 10.9947 2.90308 10.99C3.61475 10.986 4.32642 11.0736 5.03988 11.2867C4.59676 10.9703 4.10262 10.7375 3.57536 10.5859C2.91113 10.3949 2.1932 10.3318 1.45736 10.3871C1.29085 10.3989 1.14583 10.29 1.13151 10.144C1.12972 10.1282 1.12972 10.1132 1.13151 10.0982ZM9.27588 5.53749C9.27409 5.52486 9.2723 5.51145 9.2723 5.49724C9.2723 5.48382 9.27319 5.47041 9.27588 5.45699V4.57941C8.57764 4.52101 7.85791 4.58888 7.22949 4.79881C6.64225 4.99532 6.13558 5.31809 5.80615 5.78056V10.7793C6.3182 10.4778 6.84188 10.23 7.37988 10.0611C7.99308 9.86855 8.62329 9.77701 9.27588 9.82278V5.53749ZM9.88013 5.23128H10.6983C10.8648 5.23128 11 5.35045 11 5.49724V11.6261C11 11.7729 10.8648 11.892 10.6983 11.892C10.6643 11.892 10.6312 11.8873 10.6007 11.8778C9.75928 11.6655 8.92318 11.5243 8.09513 11.5195C7.28768 11.5148 6.48112 11.6403 5.67098 11.9552C5.62085 11.9844 5.56087 12.0002 5.49911 11.9994C5.43823 12.0002 5.37826 11.9844 5.32723 11.9552C4.51799 11.6395 3.71053 11.5148 2.90308 11.5195C2.07503 11.5243 1.23983 11.6655 0.397461 11.8778C0.367025 11.8873 0.333903 11.892 0.299886 11.892C0.135173 11.8928 0 11.7737 0 11.6269V5.49724C0 5.35045 0.135173 5.23128 0.301676 5.23128H1.16195L1.16732 4.34266C1.16821 4.21481 1.27026 4.10906 1.40723 4.0838C2.20125 3.9378 3.16626 3.97411 4.01221 4.25979C4.59676 4.45709 5.1276 4.77198 5.51522 5.22655C5.90641 4.80275 6.4292 4.49813 7.01733 4.30162C7.82121 4.03251 8.74862 3.96779 9.62142 4.08065C9.77181 4.09959 9.87923 4.21402 9.87923 4.34345V5.23128H9.88013ZM6.09888 11.2465C6.76579 11.0618 7.4318 10.986 8.09782 10.9892C8.86857 10.9931 9.63395 11.1044 10.3966 11.278V5.76399H9.88013V10.1219C9.88013 10.2687 9.74495 10.3878 9.57845 10.3878C9.55428 10.3878 9.53101 10.3855 9.50863 10.3807C8.84798 10.2892 8.20793 10.365 7.58309 10.5615C7.08 10.7201 6.58586 10.9568 6.09888 11.2465ZM5.2028 10.728V5.77267C4.8868 5.281 4.37565 4.95191 3.79826 4.75698C3.14388 4.53601 2.40894 4.48629 1.76799 4.56679L1.73397 9.83935C2.43311 9.81726 3.11702 9.89539 3.76066 10.0808C4.27271 10.2276 4.75789 10.4431 5.2028 10.728Z" fill="#9D9D9D"/>
<path d="M0 13.5H51" stroke="#9D9D9D"/>
</svg>
